# File created by Blade
# Date/Time:  Wed Jan 21 17:16:23 2015
# Frame Rate: 120.000 fps
#------------------------------------------------------
:FULLY-SPECIFIED
:DEGREES
1997
root 23.986479 6.198212 -14.600375 -197.656493 -19.132222 -232.321671
Spine 56.485195 7.823492 -33.492252
Head 9.710505 41.436119 -24.011731
LeftShoulder -11.091038 -22.616047 -6.731161
LeftArm -1.158275 25.332573 -42.090276
LeftForeArm -23.450168 -0.000000 68.777968
LeftHand -0.140633 -0.000000 -10.284724
LeftHandThumb1 -26.253704 0.000000 33.147579
RightShoulder -1.435560 -20.058530 -16.384828
RightArm -2.612463 -31.456972 80.972854
RightForeArm -50.455930 -0.000000 67.195607
RightHand -14.279241 -0.000000 -14.638525
RightHandThumb1 -24.326973 -0.000000 -32.862282
LeftUpLeg -82.808695 26.668611 -17.065443
LeftLeg 145.446708 -0.000000 -0.000000
LeftFoot -29.552696 12.275898 -9.228696
LeftToeBase 10.887867 -0.000000 -0.000000
RightUpLeg -93.260504 -23.420445 31.667707
RightLeg 121.225404 -0.000000 -0.000000
RightFoot 20.822638 -20.525211 -0.711682
RightToeBase 40.039088 -0.000000 -0.000000
1998
root 23.964763 6.184440 -14.590127 -197.622940 -19.250403 -232.026074
Spine 56.446362 7.703734 -33.397095
Head 9.754558 41.799449 -23.838811
LeftShoulder -10.958440 -22.802373 -6.688222
LeftArm -1.318922 25.401979 -42.327624
LeftForeArm -23.273740 -0.000000 68.717780
LeftHand -0.078467 -0.000000 -10.338618
LeftHandThumb1 -26.253704 0.000000 33.147579
RightShoulder -1.452292 -20.029572 -16.324068
RightArm -2.400480 -31.652458 80.742687
RightForeArm -50.254743 -0.000000 66.902664
RightHand -14.198512 0.000000 -14.581856
RightHandThumb1 -24.326973 -0.000000 -32.862282
LeftUpLeg -83.028292 26.273143 -17.194923
LeftLeg 145.350989 -0.000000 -0.000000
LeftFoot -29.843526 12.109782 -9.255918
LeftToeBase 11.269309 -0.000000 -0.000000
RightUpLeg -93.495428 -23.482269 31.932078
RightLeg 121.251031 -0.000000 -0.000000
RightFoot 20.847520 -20.448093 -0.721406
RightToeBase 40.008128 -0.000000 -0.000000
1999
root 23.947919 6.170102 -14.582655 -197.600471 -19.345082 -231.762032
Spine 56.398977 7.626269 -33.375100
Head 9.766696 42.342384 -23.654375
LeftShoulder -10.906622 -22.907793 -6.649954
LeftArm -1.297205 25.404043 -42.429615
LeftForeArm -23.173013 -0.000000 68.594461
LeftHand -0.024913 -0.000000 -10.463579
LeftHandThumb1 -26.253704 0.000000 33.147579
RightShoulder -1.408898 -19.951417 -16.224366
RightArm -2.293488 -31.790054 80.549406
RightForeArm -50.075884 -0.000000 66.697571
RightHand -14.264382 0.000000 -14.484965
RightHandThumb1 -24.326973 -0.000000 -32.862282
LeftUpLeg -83.201614 25.972528 -17.296910
LeftLeg 145.236072 -0.000000 -0.000000
LeftFoot -30.107116 12.016392 -9.315035
LeftToeBase 11.389038 -0.000000 -0.000000
RightUpLeg -93.670888 -23.542673 32.166170
RightLeg 121.265168 -0.000000 -0.000000
RightFoot 20.845023 -20.275489 -0.813166
RightToeBase 40.022060 -0.000000 -0.000000
2000
root 23.929047 6.156071 -14.574424 -197.548399 -19.448484 -231.500820
Spine 56.348614 7.556006 -33.300230
Head 9.752194 42.927461 -23.577480
LeftShoulder -10.809619 -22.923946 -6.714097
LeftArm -1.148406 25.324251 -42.430142
LeftForeArm -22.987646 -0.000000 68.469329
LeftHand -0.038913 -0.000000 -10.650600
LeftHandThumb1 -26.253704 0.000000 33.147579
RightShoulder -1.435135 -19.896798 -16.155385
RightArm -2.120373 -31.979431 80.371527
RightForeArm -49.864743 -0.000000 66.347035
RightHand -14.201884 -0.000000 -14.510647
RightHandThumb1 -24.326973 -0.000000 -32.862282
LeftUpLeg -83.401241 25.670066 -17.414323
LeftLeg 145.114661 -0.000000 -0.000000
LeftFoot -30.322170 11.947299 -9.359928
LeftToeBase 11.501505 -0.000000 -0.000000
RightUpLeg -93.880584 -23.575988 32.353520
RightLeg 121.301948 -0.000000 -0.000000
RightFoot 20.882518 -19.993078 -0.814956
RightToeBase 40.063518 -0.000000 -0.000000
